<svg width="140" height="140" viewBox="0 0 140 140" fill="none" xmlns="http://www.w3.org/2000/svg">
<g clip-path="url(#clip0_2577_365)">
<path d="M140 53.3313H133.306V86.6688H140V53.3313Z" fill="#05171F"/>
<path d="M133.306 86.6687H126.656V100.012H133.306V86.6687Z" fill="#05171F"/>
<path d="M133.306 39.9875H126.656V53.3313H133.306V39.9875Z" fill="#05171F"/>
<path d="M126.656 100.012H120.006V113.312H126.656V100.012Z" fill="#05171F"/>
<path d="M126.656 26.6438H120.006V39.9875H126.656V26.6438Z" fill="#05171F"/>
<path d="M120.006 113.312H113.312V120.006H120.006V113.312Z" fill="#05171F"/>
<path d="M120.006 19.9937H113.312V26.6437H120.006V19.9937Z" fill="#05171F"/>
<path d="M106.662 59.9813H86.6687V53.3313H79.975V66.675H106.662V73.3251H79.975V80.0188H106.662V86.6688H113.312V53.3313H106.662V59.9813Z" fill="#05171F"/>
<path d="M113.312 120.006H99.9688V126.656H113.312V120.006Z" fill="#05171F"/>
<path d="M113.312 13.3438H99.9688V19.9937H113.312V13.3438Z" fill="#05171F"/>
<path d="M79.975 86.6687V100.012H53.3312V106.662H99.9687V100.012H86.6687V93.3187H99.9687V100.012H106.662V86.6687H79.975Z" fill="#05171F"/>
<path d="M99.9688 126.656H86.6688V133.35H99.9688V126.656Z" fill="#05171F"/>
<path d="M106.663 46.6812H86.6688V53.3312H106.663V46.6812Z" fill="#05171F"/>
<path d="M93.3188 26.6438H86.6688V39.9875H93.3188V26.6438Z" fill="#05171F"/>
<path d="M99.9688 6.6499H86.6688V13.3437H99.9688V6.6499Z" fill="#05171F"/>
<path d="M86.6687 39.9875H79.975V46.6813H86.6687V39.9875Z" fill="#05171F"/>
<path d="M86.6688 19.9937H73.325V26.6437H86.6688V19.9937Z" fill="#05171F"/>
<path d="M86.6687 133.35H53.3312V140H86.6687V133.35Z" fill="#05171F"/>
<path d="M79.975 80.0188H73.325V86.6688H79.975V80.0188Z" fill="#05171F"/>
<path d="M79.975 66.675H73.325V73.3251H79.975V66.675Z" fill="#05171F"/>
<path d="M79.975 46.6812H73.325V53.3312H79.975V46.6812Z" fill="#05171F"/>
<path d="M73.325 26.6438H66.6312V33.3375H73.325V26.6438Z" fill="#05171F"/>
<path d="M66.6313 33.3374H59.9813V39.9874H66.6313V33.3374Z" fill="#05171F"/>
<path d="M86.6687 0H53.3312V6.65H86.6687V0Z" fill="#05171F"/>
<path d="M59.9812 39.9875H53.3312V46.6813H59.9812V39.9875Z" fill="#05171F"/>
<path d="M53.3312 126.656H39.9875V133.35H53.3312V126.656Z" fill="#05171F"/>
<path d="M46.6375 93.3188V53.3313H53.3312V46.6813H46.6375V39.9875H26.6437V106.663H46.6375V100.013H53.3312V93.3188H46.6375ZM39.9875 93.3188H33.3375V80.0188H39.9875V93.3188Z" fill="#05171F"/>
<path d="M53.3312 6.6499H39.9875V13.3437H53.3312V6.6499Z" fill="#05171F"/>
<path d="M39.9875 120.006H26.6437V126.656H39.9875V120.006Z" fill="#05171F"/>
<path d="M39.9875 13.3438H26.6437V19.9937H39.9875V13.3438Z" fill="#05171F"/>
<path d="M26.6438 113.312H19.9938V120.006H26.6438V113.312Z" fill="#05171F"/>
<path d="M26.6438 19.9937H19.9938V26.6437H26.6438V19.9937Z" fill="#05171F"/>
<path d="M19.9937 100.012H13.3V113.312H19.9937V100.012Z" fill="#05171F"/>
<path d="M19.9937 26.6438H13.3V39.9875H19.9937V26.6438Z" fill="#05171F"/>
<path d="M13.3 86.6687H6.65002V100.012H13.3V86.6687Z" fill="#05171F"/>
<path d="M13.3 39.9875H6.65002V53.3313H13.3V39.9875Z" fill="#05171F"/>
<path d="M6.65 53.3313H0V86.6688H6.65V53.3313Z" fill="#05171F"/>
</g>
<defs>
<clipPath id="clip0_2577_365">
<rect width="140" height="140" fill="white"/>
</clipPath>
</defs>
</svg>
