<svg width="120" height="81" viewBox="0 0 120 81" fill="none" xmlns="http://www.w3.org/2000/svg">
<g clip-path="url(#clip0_2577_237)">
<path d="M114.27 7.70737H108.57V3.85987H102.87V-0.0129395H22.845V30.8683H5.70752V34.7158H34.2825V30.8683H28.5825V3.85987H91.4325V19.2752H114.27V57.8514H108.57V65.5718H114.27V77.1396H120.008V11.5802H114.27V7.70737Z" fill="#05171F"/>
<path d="M114.27 77.1399H28.5825V80.9874H114.27V77.1399Z" fill="#05171F"/>
<path d="M108.57 50.1313H102.87V57.8517H108.57V50.1313Z" fill="#05171F"/>
<path d="M102.87 42.4363H97.1325V50.1313H102.87V42.4363Z" fill="#05171F"/>
<path d="M97.1325 38.5635H40.02V42.4363H97.1325V38.5635Z" fill="#05171F"/>
<path d="M40.02 34.7161H34.2825V38.5636H40.02V34.7161Z" fill="#05171F"/>
<path d="M28.5825 69.4194H22.845V77.1397H28.5825V69.4194Z" fill="#05171F"/>
<path d="M22.845 61.7244H17.145V69.4194H22.845V61.7244Z" fill="#05171F"/>
<path d="M17.145 54.0042H11.445V61.7245H17.145V54.0042Z" fill="#05171F"/>
<path d="M11.445 46.2839H5.70752V54.0042H11.445V46.2839Z" fill="#05171F"/>
<path d="M5.70751 34.7161H0.00750732V46.2839H5.70751V34.7161Z" fill="#05171F"/>
</g>
<defs>
<clipPath id="clip0_2577_237">
<rect width="120" height="81" fill="white"/>
</clipPath>
</defs>
</svg>
