<svg width="26" height="26" viewBox="0 0 26 26" fill="none" xmlns="http://www.w3.org/2000/svg">
<rect x="26" y="9.28564" width="1.85714" height="1.85714" transform="rotate(180 26 9.28564)" fill="#05171F"/>
<rect x="26" y="7.42847" width="1.85714" height="1.85714" transform="rotate(180 26 7.42847)" fill="#05171F"/>
<rect x="26" y="5.57153" width="1.85714" height="1.85714" transform="rotate(180 26 5.57153)" fill="#05171F"/>
<rect x="26" y="3.71436" width="1.85714" height="1.85714" transform="rotate(180 26 3.71436)" fill="#05171F"/>
<rect x="24.2589" y="3.71436" width="1.85714" height="1.85714" transform="rotate(180 24.2589 3.71436)" fill="#05171F"/>
<rect x="22.2857" y="1.85718" width="1.85714" height="1.85714" transform="rotate(180 22.2857 1.85718)" fill="#05171F"/>
<rect x="11.1429" y="26" width="1.85714" height="1.85714" transform="rotate(180 11.1429 26)" fill="#05171F"/>
<rect x="14.8571" y="24.1428" width="1.85714" height="1.85714" transform="rotate(180 14.8571 24.1428)" fill="#05171F"/>
<rect x="16.7143" y="22.2856" width="1.85714" height="1.85714" transform="rotate(180 16.7143 22.2856)" fill="#05171F"/>
<rect x="11.0268" y="5.57153" width="1.85714" height="1.85714" transform="rotate(180 11.0268 5.57153)" fill="#05171F"/>
<rect x="9.28571" y="9.28564" width="1.85714" height="1.85714" transform="rotate(180 9.28571 9.28564)" fill="#05171F"/>
<rect x="7.42859" y="13" width="1.85714" height="1.85714" transform="rotate(180 7.42859 13)" fill="#05171F"/>
<rect x="7.42859" y="16.7144" width="1.85714" height="1.85714" transform="rotate(180 7.42859 16.7144)" fill="#05171F"/>
<rect x="9.28571" y="13" width="1.85714" height="1.85714" transform="rotate(180 9.28571 13)" fill="#05171F"/>
<rect x="9.28571" y="16.7144" width="1.85714" height="1.85714" transform="rotate(180 9.28571 16.7144)" fill="#05171F"/>
<rect x="11.1429" y="16.7144" width="1.85714" height="1.85714" transform="rotate(180 11.1429 16.7144)" fill="#05171F"/>
<rect x="13" y="18.5715" width="1.85714" height="1.85714" transform="rotate(180 13 18.5715)" fill="#05171F"/>
<rect x="13" y="26" width="1.85714" height="1.85714" transform="rotate(180 13 26)" fill="#05171F"/>
<rect x="11.1429" y="24.1428" width="1.85714" height="1.85714" transform="rotate(180 11.1429 24.1428)" fill="#05171F"/>
<rect x="11.1429" y="22.2856" width="1.85714" height="1.85714" transform="rotate(180 11.1429 22.2856)" fill="#05171F"/>
<rect x="13" y="20.4285" width="1.85714" height="1.85714" transform="rotate(180 13 20.4285)" fill="#05171F"/>
<rect x="14.8571" y="16.7144" width="1.85714" height="1.85714" transform="rotate(180 14.8571 16.7144)" fill="#05171F"/>
<rect x="16.7143" y="16.7144" width="1.85714" height="1.85714" transform="rotate(180 16.7143 16.7144)" fill="#05171F"/>
<rect x="9.16962" y="5.57153" width="1.85714" height="1.85714" transform="rotate(180 9.16962 5.57153)" fill="#05171F"/>
<rect x="7.42859" y="9.28564" width="1.85714" height="1.85714" transform="rotate(180 7.42859 9.28564)" fill="#05171F"/>
<rect x="5.57141" y="13" width="1.85714" height="1.85714" transform="rotate(180 5.57141 13)" fill="#05171F"/>
<rect x="5.57141" y="16.7144" width="1.85714" height="1.85714" transform="rotate(180 5.57141 16.7144)" fill="#05171F"/>
<rect x="7.3125" y="5.57153" width="1.85714" height="1.85714" transform="rotate(180 7.3125 5.57153)" fill="#05171F"/>
<rect x="5.57141" y="9.28564" width="1.85714" height="1.85714" transform="rotate(180 5.57141 9.28564)" fill="#05171F"/>
<rect x="3.71429" y="13" width="1.85714" height="1.85714" transform="rotate(180 3.71429 13)" fill="#05171F"/>
<rect x="3.71429" y="16.7144" width="1.85714" height="1.85714" transform="rotate(180 3.71429 16.7144)" fill="#05171F"/>
<rect width="1.85714" height="1.85714" transform="matrix(1 0 0 -1 14.8571 1.85718)" fill="#05171F"/>
<rect width="1.85714" height="1.85714" transform="matrix(1 0 0 -1 13 1.85718)" fill="#05171F"/>
<rect width="1.85714" height="1.85714" transform="matrix(1 0 0 -1 11.1429 1.85718)" fill="#05171F"/>
<rect width="1.85714" height="1.85714" transform="matrix(1 0 0 -1 9.28571 1.85718)" fill="#05171F"/>
<rect width="1.85714" height="1.85714" transform="matrix(1 0 0 -1 7.42859 1.85718)" fill="#05171F"/>
<rect width="1.85714" height="1.85714" transform="matrix(1 0 0 -1 5.57141 1.85718)" fill="#05171F"/>
<rect width="1.85714" height="1.85714" transform="matrix(1 0 0 -1 3.71429 3.71436)" fill="#05171F"/>
<rect width="1.85714" height="1.85714" transform="matrix(1 0 0 -1 1.85712 7.42847)" fill="#05171F"/>
<rect width="1.85714" height="1.85714" transform="matrix(1 0 0 -1 0 11.1428)" fill="#05171F"/>
<rect width="1.85714" height="1.85714" transform="matrix(1 0 0 -1 0 14.8572)" fill="#05171F"/>
<rect width="1.85714" height="1.85714" transform="matrix(1 0 0 -1 3.71429 5.57153)" fill="#05171F"/>
<rect width="1.85714" height="1.85714" transform="matrix(1 0 0 -1 1.85712 9.28564)" fill="#05171F"/>
<rect width="1.85714" height="1.85714" transform="matrix(1 0 0 -1 0 13)" fill="#05171F"/>
<rect width="1.85714" height="1.85714" transform="matrix(1 0 0 -1 0 16.7144)" fill="#05171F"/>
<rect x="18.5714" y="1.85718" width="1.85714" height="1.85714" transform="rotate(180 18.5714 1.85718)" fill="#05171F"/>
<rect x="20.4286" y="1.85718" width="1.85714" height="1.85714" transform="rotate(180 20.4286 1.85718)" fill="#05171F"/>
<rect x="18.5714" y="20.4285" width="1.85714" height="1.85714" transform="rotate(180 18.5714 20.4285)" fill="#05171F"/>
<rect x="18.5714" y="18.5715" width="1.85714" height="1.85714" transform="rotate(180 18.5714 18.5715)" fill="#05171F"/>
<rect x="26" y="11.1428" width="1.85714" height="1.85714" transform="rotate(180 26 11.1428)" fill="#05171F"/>
<rect x="26" y="13" width="1.85714" height="1.85714" transform="rotate(180 26 13)" fill="#05171F"/>
<rect x="20.4286" y="18.5715" width="1.85714" height="1.85714" transform="rotate(180 20.4286 18.5715)" fill="#05171F"/>
<rect x="22.2857" y="16.7144" width="1.85714" height="1.85714" transform="rotate(180 22.2857 16.7144)" fill="#05171F"/>
<rect x="24.1429" y="14.8572" width="1.85714" height="1.85714" transform="rotate(180 24.1429 14.8572)" fill="#05171F"/>
<rect x="26" y="14.8572" width="1.85714" height="1.85714" transform="rotate(180 26 14.8572)" fill="#05171F"/>
</svg>
