<svg width="26" height="26" viewBox="0 0 26 26" fill="none" xmlns="http://www.w3.org/2000/svg">
<rect y="16.7144" width="1.85714" height="1.85714" fill="#05171F"/>
<rect y="18.5715" width="1.85714" height="1.85714" fill="#05171F"/>
<rect y="20.4285" width="1.85714" height="1.85714" fill="#05171F"/>
<rect y="22.2856" width="1.85714" height="1.85714" fill="#05171F"/>
<rect x="1.74109" y="22.2856" width="1.85714" height="1.85714" fill="#05171F"/>
<rect x="3.71429" y="24.1428" width="1.85714" height="1.85714" fill="#05171F"/>
<rect x="14.8571" width="1.85714" height="1.85714" fill="#05171F"/>
<rect x="11.1429" y="1.85718" width="1.85714" height="1.85714" fill="#05171F"/>
<rect x="9.28571" y="3.71436" width="1.85714" height="1.85714" fill="#05171F"/>
<rect x="14.9732" y="20.4285" width="1.85714" height="1.85714" fill="#05171F"/>
<rect x="16.7143" y="16.7144" width="1.85714" height="1.85714" fill="#05171F"/>
<rect x="18.5714" y="13" width="1.85714" height="1.85714" fill="#05171F"/>
<rect x="18.5714" y="9.28564" width="1.85714" height="1.85714" fill="#05171F"/>
<rect x="16.7143" y="13" width="1.85714" height="1.85714" fill="#05171F"/>
<rect x="16.7143" y="9.28564" width="1.85714" height="1.85714" fill="#05171F"/>
<rect x="14.8571" y="9.28564" width="1.85714" height="1.85714" fill="#05171F"/>
<rect x="13" y="7.42847" width="1.85714" height="1.85714" fill="#05171F"/>
<rect x="13" width="1.85714" height="1.85714" fill="#05171F"/>
<rect x="14.8571" y="1.85718" width="1.85714" height="1.85714" fill="#05171F"/>
<rect x="14.8571" y="3.71436" width="1.85714" height="1.85714" fill="#05171F"/>
<rect x="13" y="5.57153" width="1.85714" height="1.85714" fill="#05171F"/>
<rect x="11.1429" y="9.28564" width="1.85714" height="1.85714" fill="#05171F"/>
<rect x="9.28571" y="9.28564" width="1.85714" height="1.85714" fill="#05171F"/>
<rect x="16.8304" y="20.4285" width="1.85714" height="1.85714" fill="#05171F"/>
<rect x="18.5714" y="16.7144" width="1.85714" height="1.85714" fill="#05171F"/>
<rect x="20.4286" y="13" width="1.85714" height="1.85714" fill="#05171F"/>
<rect x="20.4286" y="9.28564" width="1.85714" height="1.85714" fill="#05171F"/>
<rect x="18.6875" y="20.4285" width="1.85714" height="1.85714" fill="#05171F"/>
<rect x="20.4286" y="16.7144" width="1.85714" height="1.85714" fill="#05171F"/>
<rect x="22.2857" y="13" width="1.85714" height="1.85714" fill="#05171F"/>
<rect x="22.2857" y="9.28564" width="1.85714" height="1.85714" fill="#05171F"/>
<rect width="1.85714" height="1.85714" transform="matrix(-1 0 0 1 11.1429 24.1428)" fill="#05171F"/>
<rect width="1.85714" height="1.85714" transform="matrix(-1 0 0 1 13 24.1428)" fill="#05171F"/>
<rect width="1.85714" height="1.85714" transform="matrix(-1 0 0 1 14.8571 24.1428)" fill="#05171F"/>
<rect width="1.85714" height="1.85714" transform="matrix(-1 0 0 1 16.7143 24.1428)" fill="#05171F"/>
<rect width="1.85714" height="1.85714" transform="matrix(-1 0 0 1 18.5714 24.1428)" fill="#05171F"/>
<rect width="1.85714" height="1.85714" transform="matrix(-1 0 0 1 20.4286 24.1428)" fill="#05171F"/>
<rect width="1.85714" height="1.85714" transform="matrix(-1 0 0 1 22.2857 22.2856)" fill="#05171F"/>
<rect width="1.85714" height="1.85714" transform="matrix(-1 0 0 1 24.1429 18.5715)" fill="#05171F"/>
<rect width="1.85714" height="1.85714" transform="matrix(-1 0 0 1 26 14.8572)" fill="#05171F"/>
<rect width="1.85714" height="1.85714" transform="matrix(-1 0 0 1 26 11.1428)" fill="#05171F"/>
<rect width="1.85714" height="1.85714" transform="matrix(-1 0 0 1 22.2857 20.4285)" fill="#05171F"/>
<rect width="1.85714" height="1.85714" transform="matrix(-1 0 0 1 24.1429 16.7144)" fill="#05171F"/>
<rect width="1.85714" height="1.85714" transform="matrix(-1 0 0 1 26 13)" fill="#05171F"/>
<rect width="1.85714" height="1.85714" transform="matrix(-1 0 0 1 26 9.28564)" fill="#05171F"/>
<rect x="7.42859" y="24.1428" width="1.85714" height="1.85714" fill="#05171F"/>
<rect x="5.57141" y="24.1428" width="1.85714" height="1.85714" fill="#05171F"/>
<rect x="7.42859" y="5.57153" width="1.85714" height="1.85714" fill="#05171F"/>
<rect x="7.42859" y="7.42847" width="1.85714" height="1.85714" fill="#05171F"/>
<rect y="14.8572" width="1.85714" height="1.85714" fill="#05171F"/>
<rect y="13" width="1.85714" height="1.85714" fill="#05171F"/>
<rect x="5.57141" y="7.42847" width="1.85714" height="1.85714" fill="#05171F"/>
<rect x="3.71429" y="9.28564" width="1.85714" height="1.85714" fill="#05171F"/>
<rect x="1.85712" y="11.1428" width="1.85714" height="1.85714" fill="#05171F"/>
<rect y="11.1428" width="1.85714" height="1.85714" fill="#05171F"/>
</svg>
