<svg width="40" height="40" viewBox="0 0 40 40" fill="none" xmlns="http://www.w3.org/2000/svg">
<rect x="27" y="18.3335" width="3.33333" height="13.3333" transform="rotate(90 27 18.3335)" fill="#05171F"/>
<rect x="20.3333" y="21.6665" width="3.33333" height="3.33333" transform="rotate(90 20.3333 21.6665)" fill="#05171F"/>
<rect x="23.6667" y="25" width="3.33333" height="3.33333" transform="rotate(90 23.6667 25)" fill="#05171F"/>
<rect x="27" y="28.3335" width="3.33333" height="3.33333" transform="rotate(90 27 28.3335)" fill="#05171F"/>
<rect width="3.33333" height="3.33333" transform="matrix(4.37114e-08 -1 -1 -4.37114e-08 20.3333 18.3335)" fill="#05171F"/>
<rect width="13.3333" height="3.33333" transform="matrix(4.37114e-08 -1 -1 -4.37114e-08 23.6667 25)" fill="#05171F"/>
<rect width="20" height="3.33333" transform="matrix(4.37114e-08 -1 -1 -4.37114e-08 27 28.3335)" fill="#05171F"/>
</svg>
