<svg width="40" height="40" viewBox="0 0 40 40" fill="none" xmlns="http://www.w3.org/2000/svg">
<path d="M28.3333 15H30V13.3333H28.3333V15Z" fill="#05171F"/>
<path d="M30 16.6667H31.6666V15H30V16.6667Z" fill="#05171F"/>
<path d="M30 25H31.6666V23.3333H30V25Z" fill="#05171F"/>
<path d="M28.3333 26.6667H30V25H28.3333V26.6667Z" fill="#05171F"/>
<path d="M25 18.3333H26.6666V16.6667H25V18.3333Z" fill="#05171F"/>
<path d="M25 23.3333H26.6666V21.6667H25V23.3333Z" fill="#05171F"/>
<path d="M33.3333 16.6667H31.6666V23.3333H33.3333V16.6667Z" fill="#05171F"/>
<path d="M28.3333 18.3333H26.6666V21.6667H28.3333V18.3333Z" fill="#05171F"/>
<path d="M16.6666 28.3333V30H20V28.3333H16.6666Z" fill="#05171F"/>
<path d="M13.3333 26.6667V28.3333H16.6666V26.6667H13.3333Z" fill="#05171F"/>
<path d="M9.99998 25V26.6667H13.3333V25H9.99998Z" fill="#05171F"/>
<path d="M9.99998 15H8.33331V25H9.99998V15Z" fill="#05171F"/>
<path d="M13.3333 15V13.3333H9.99998V15H13.3333Z" fill="#05171F"/>
<path d="M16.6666 13.3333V11.6667H13.3333V13.3333H16.6666Z" fill="#05171F"/>
<path d="M20 11.6667V10H16.6666V11.6667H20Z" fill="#05171F"/>
<path d="M20 28.3333H21.6666V11.6667H20V28.3333Z" fill="#05171F"/>
<path d="M10 25V15H13.3333V13.3333H16.6667V11.6666H20V28.3333H16.6667V26.6666H13.3333V25H10Z" fill="#05171F"/>
</svg>
