<svg width="144" height="120" viewBox="0 0 144 120" fill="none" xmlns="http://www.w3.org/2000/svg">
<path d="M137.16 91.425H130.275V79.9875H123.435V68.5875H116.55V57.15H109.71V45.7125H102.87V34.275H95.985V22.8375H89.145V11.4375H82.305V5.7H75.42V0H68.58V5.7H61.695V11.4375H54.855V22.8375H48.015V34.275H41.13V45.7125H34.29V57.15H27.405V68.5875H20.565V79.9875H13.725V91.425H6.84V102.863H0V114.3H6.84V120H137.16V114.3H144V102.863H137.16V91.425ZM89.145 102.863H82.305V108.562H61.695V102.863H54.855V85.725H61.695V79.9875H82.305V85.725H89.145V102.863ZM89.145 62.85H82.305V74.2875H61.695V62.85H54.855V40.0125H61.695V34.275H82.305V40.0125H89.145V62.85Z" fill="#A9382E"/>
<path d="M82.1607 42.856H75.7061V53.5786H82.1607V42.856Z" fill="#A9382E"/>
<path d="M75.7064 37.5115H69.2939V42.8552H75.7064V37.5115Z" fill="#A9382E"/>
</svg>
