<svg width="135" height="135" viewBox="0 0 135 135" fill="none" xmlns="http://www.w3.org/2000/svg">
<g clip-path="url(#clip0_2577_187)">
<path d="M135 122.133H122.133V128.587H135V122.133Z" fill="#05171F"/>
<path d="M122.133 128.587H115.72V135H122.133V128.587Z" fill="#05171F"/>
<path d="M115.72 83.5734H109.266V89.9859H115.72V96.4406H122.133V64.2937H115.72V83.5734Z" fill="#05171F"/>
<path d="M115.72 122.133H102.853V128.587H115.72V122.133Z" fill="#05171F"/>
<path d="M115.72 57.8813H109.266V64.2938H115.72V57.8813Z" fill="#05171F"/>
<path d="M102.853 115.72H89.9859V122.133H102.853V115.72Z" fill="#05171F"/>
<path d="M96.4406 89.986H102.853V83.5735H109.266V77.161H102.853V57.8813H109.266V51.4267H102.853V32.147H96.4406V89.986Z" fill="#05171F"/>
<path d="M89.9859 128.587H83.5734V135H89.9859V128.587Z" fill="#05171F"/>
<path d="M89.9859 77.1609H83.5734V83.5734H89.9859V77.1609Z" fill="#05171F"/>
<path d="M89.9859 64.2937H83.5734V70.7062H89.9859V64.2937Z" fill="#05171F"/>
<path d="M83.5734 115.72H77.1187V128.587H83.5734V115.72Z" fill="#05171F"/>
<path d="M83.5734 102.853H57.8391V109.308H83.5734V102.853Z" fill="#05171F"/>
<path d="M83.5734 6.4126H77.1187V12.8673H83.5734V6.4126Z" fill="#05171F"/>
<path d="M77.1188 0H64.2938V6.4125H77.1188V0Z" fill="#05171F"/>
<path d="M83.5734 38.5595H77.1188V32.147H64.2938V38.5595H70.7063V45.0142H64.2938V38.5595H57.8391V51.4267H64.2938V57.8813H77.1188V51.4267H83.5734V38.5595Z" fill="#05171F"/>
<path d="M64.2938 115.72H57.8391V128.587H64.2938V115.72Z" fill="#05171F"/>
<path d="M44.9719 96.4405H51.4266V102.853H57.8391V96.4405H83.5734V102.853H89.9859V96.4405H96.4406V89.9858H44.9719V96.4405Z" fill="#05171F"/>
<path d="M64.2938 6.4126H57.8391V12.8673H64.2938V6.4126Z" fill="#05171F"/>
<path d="M57.8391 128.587H51.4266V135H57.8391V128.587Z" fill="#05171F"/>
<path d="M51.4266 115.72H38.5594V122.133H51.4266V115.72Z" fill="#05171F"/>
<path d="M57.8391 19.2797V12.8672H51.4266V19.2797H44.9719V32.1469H51.4266V25.7344H89.9859V32.1469H96.4406V19.2797H89.9859V12.8672H83.5734V19.2797H57.8391Z" fill="#05171F"/>
<path d="M44.9719 32.147H38.5594V51.4267H32.1469V57.8813H38.5594V77.161H32.1469V83.5735H38.5594V89.986H44.9719V32.147Z" fill="#05171F"/>
<path d="M38.5594 122.133H25.6922V128.587H38.5594V122.133Z" fill="#05171F"/>
<path d="M32.1469 57.8813H25.6922V64.2938H32.1469V57.8813Z" fill="#05171F"/>
<path d="M25.6922 128.587H19.2797V135H25.6922V128.587Z" fill="#05171F"/>
<path d="M25.6922 64.2937H19.2797V96.4406H25.6922V89.9859H32.1469V83.5734H25.6922V64.2937Z" fill="#05171F"/>
<path d="M19.2797 122.133H6.4125V128.587H19.2797V122.133Z" fill="#05171F"/>
<path d="M6.4125 128.587H0V135H6.4125V128.587Z" fill="#05171F"/>
</g>
<defs>
<clipPath id="clip0_2577_187">
<rect width="135" height="135" fill="white"/>
</clipPath>
</defs>
</svg>
