<svg width="100" height="18" viewBox="0 0 100 18" fill="none" xmlns="http://www.w3.org/2000/svg">
<path d="M4 13V16.5H8V13H4Z" fill="#075A2C"/>
<path d="M5 9V13H9.5V9H5Z" fill="#075A2C"/>
<path d="M5 5V9H10V5H5Z" fill="#075A2C"/>
<path d="M6.5 1.5V5H11V1.5L6.5 1.5Z" fill="#01813F"/>
<path d="M4 13V16.5H8V13H4Z" fill="#075A2C"/>
<path d="M4.5 9V13H9.5V9H4.5Z" fill="#075A2C"/>
<path d="M5 5V9H10V5H5Z" fill="#075A2C"/>
<path d="M6.5 1.5V5H11V1.5L6.5 1.5Z" fill="#01813F"/>
<path d="M2 13V15H4V13H2Z" fill="#075A2C"/>
<path d="M1 9L1 13H5V9H1Z" fill="#075A2C"/>
<path d="M1 5L1 9H6V5H1Z" fill="#075A2C"/>
<path d="M2 1.5V5H7V1.5L2 1.5Z" fill="#01813F"/>
<path d="M18 13V17H19.1667V13H18Z" fill="#073E20"/>
<path d="M18.7778 9V13H19.9444V9H18.7778Z" fill="#073E20"/>
<path d="M19.5555 5V9H20.7222V5H19.5555Z" fill="#073E20"/>
<path d="M20.3333 1V5H21.5V1H20.3333Z" fill="#073E20"/>
<path d="M8 13V17H9.16667V13H8Z" fill="#073E20"/>
<path d="M8.77777 9V13H9.94444V9H8.77777Z" fill="#073E20"/>
<path d="M9.55554 5V9H10.7222V5H9.55554Z" fill="#073E20"/>
<path d="M10.3333 1V5H11.5V1H10.3333Z" fill="#073E20"/>
<path d="M3.5 13V16H4.67V13H3.5Z" fill="#073E20"/>
<path d="M4.27777 9V13H5.44444V9H4.27777Z" fill="#073E20"/>
<path d="M5.05554 5V9H6.22221V5H5.05554Z" fill="#073E20"/>
<path d="M5.83331 1V5H6.99998V1H5.83331Z" fill="#073E20"/>
<path d="M28 13V17H29.1667V13H28Z" fill="#073E20"/>
<path d="M28.7778 9V13H29.9444V9H28.7778Z" fill="#073E20"/>
<path d="M29.5555 5V9H30.7222V5H29.5555Z" fill="#073E20"/>
<path d="M30.3333 1V5H31.5V1H30.3333Z" fill="#073E20"/>
<path d="M38 13V17H39.1667V13H38Z" fill="#073E20"/>
<path d="M38.7778 9V13H39.9444V9H38.7778Z" fill="#073E20"/>
<path d="M39.5555 5V9H40.7222V5H39.5555Z" fill="#073E20"/>
<path d="M40.3333 1V5H41.5V1H40.3333Z" fill="#073E20"/>
<path d="M48 13V17H49.1667V13H48Z" fill="#073E20"/>
<path d="M48.7778 9V13H49.9444V9H48.7778Z" fill="#073E20"/>
<path d="M49.5555 5V9H50.7222V5H49.5555Z" fill="#073E20"/>
<path d="M50.3333 1V5H51.5V1H50.3333Z" fill="#073E20"/>
<path d="M58 13V17H59.1667V13H58Z" fill="#073E20"/>
<path d="M58.7778 9V13H59.9444V9H58.7778Z" fill="#073E20"/>
<path d="M59.5555 5V9H60.7222V5H59.5555Z" fill="#073E20"/>
<path d="M60.3333 1V5H61.5V1H60.3333Z" fill="#073E20"/>
<path d="M68 13V17H69.1667V13H68Z" fill="#073E20"/>
<path d="M68.7778 9V13H69.9444V9H68.7778Z" fill="#073E20"/>
<path d="M69.5555 5V9H70.7222V5H69.5555Z" fill="#073E20"/>
<path d="M70.3333 1V5H71.5V1H70.3333Z" fill="#073E20"/>
<path d="M78 13V17H79.1667V13H78Z" fill="#073E20"/>
<path d="M78.7778 9V13H79.9444V9H78.7778Z" fill="#073E20"/>
<path d="M79.5555 5V9H80.7222V5H79.5555Z" fill="#073E20"/>
<path d="M80.3333 1V5H81.5V1H80.3333Z" fill="#073E20"/>
<path d="M88 13V17H89.1667V13H88Z" fill="#073E20"/>
<path d="M88.7778 9V13H89.9444V9H88.7778Z" fill="#073E20"/>
<path d="M89.5555 5V9H90.7222V5H89.5555Z" fill="#073E20"/>
<path d="M90.3333 1V5H91.5V1H90.3333Z" fill="#073E20"/>
<path d="M23 13V17H24.1667V13H23Z" fill="#073E20"/>
<path d="M23.7778 9V13H24.9444V9H23.7778Z" fill="#073E20"/>
<path d="M24.5555 5V9H25.7222V5H24.5555Z" fill="#073E20"/>
<path d="M25.3333 1V5H26.5V1H25.3333Z" fill="#073E20"/>
<path d="M13 13V17H14.1667V13H13Z" fill="#073E20"/>
<path d="M13.7778 9V13H14.9444V9H13.7778Z" fill="#073E20"/>
<path d="M14.5555 5V9H15.7222V5H14.5555Z" fill="#073E20"/>
<path d="M15.3333 1V5H16.5V1H15.3333Z" fill="#073E20"/>
<path d="M33 13V17H34.1667V13H33Z" fill="#073E20"/>
<path d="M33.7778 9V13H34.9444V9H33.7778Z" fill="#073E20"/>
<path d="M34.5555 5V9H35.7222V5H34.5555Z" fill="#073E20"/>
<path d="M35.3333 1V5H36.5V1H35.3333Z" fill="#073E20"/>
<path d="M43 13V17H44.1667V13H43Z" fill="#073E20"/>
<path d="M43.7778 9V13H44.9444V9H43.7778Z" fill="#073E20"/>
<path d="M44.5555 5V9H45.7222V5H44.5555Z" fill="#073E20"/>
<path d="M45.3333 1V5H46.5V1H45.3333Z" fill="#073E20"/>
<path d="M53 13V17H54.1667V13H53Z" fill="#073E20"/>
<path d="M53.7778 9V13H54.9444V9H53.7778Z" fill="#073E20"/>
<path d="M54.5555 5V9H55.7222V5H54.5555Z" fill="#073E20"/>
<path d="M55.3333 1V5H56.5V1H55.3333Z" fill="#073E20"/>
<path d="M63 13V17H64.1667V13H63Z" fill="#073E20"/>
<path d="M63.7778 9V13H64.9444V9H63.7778Z" fill="#073E20"/>
<path d="M64.5555 5V9H65.7222V5H64.5555Z" fill="#073E20"/>
<path d="M65.3333 1V5H66.5V1H65.3333Z" fill="#073E20"/>
<path d="M73 13V17H74.1667V13H73Z" fill="#073E20"/>
<path d="M73.7778 9V13H74.9444V9H73.7778Z" fill="#073E20"/>
<path d="M74.5555 5V9H75.7222V5H74.5555Z" fill="#073E20"/>
<path d="M75.3333 1V5H76.5V1H75.3333Z" fill="#073E20"/>
<path d="M83 13V17H84.1667V13H83Z" fill="#073E20"/>
<path d="M83.7778 9V13H84.9444V9H83.7778Z" fill="#073E20"/>
<path d="M84.5555 5V9H85.7222V5H84.5555Z" fill="#073E20"/>
<path d="M85.3333 1V5H86.5V1H85.3333Z" fill="#073E20"/>
<path d="M93 13V17H94.1667V13H93Z" fill="#073E20"/>
<path d="M93.7778 9V13H94.9444V9H93.7778Z" fill="#073E20"/>
<path d="M94.5555 5V9H95.7222V5H94.5555Z" fill="#073E20"/>
<path d="M95 2V5H96.17V2H95Z" fill="#073E20"/>
<path d="M0 3L0 15H2L2 3H0Z" fill="#05171F"/>
<path d="M95 0H5V1.5H95V0Z" fill="#05171F"/>
<path d="M5 1.5H2V3H5V1.5Z" fill="#05171F"/>
<path d="M98 1.5H95V3H98V1.5Z" fill="#05171F"/>
<path d="M5 18H95V16.5H5V18Z" fill="#05171F"/>
<path d="M95 16.5H98V15H95V16.5Z" fill="#05171F"/>
<path d="M2 16.5H5V15H2V16.5Z" fill="#05171F"/>
<path d="M98 3V15H100V3H98Z" fill="#05171F"/>
</svg>
